<?xml version="1.0" encoding="UTF-8" standalone="no"?>
<!DOCTYPE svg PUBLIC "-//W3C//DTD SVG 1.1//EN" "http://www.w3.org/Graphics/SVG/1.1/DTD/svg11.dtd">
<svg width="100%" height="100%" viewBox="0 0 61 61" version="1.1" xmlns="http://www.w3.org/2000/svg" xmlns:xlink="http://www.w3.org/1999/xlink" xml:space="preserve" xmlns:serif="http://www.serif.com/" style="fill-rule:evenodd;clip-rule:evenodd;stroke-linejoin:round;stroke-miterlimit:2;">
    <path d="M33.743,38.826C39.331,38.826 44.567,41.555 47.767,46.136C47.848,46.251 47.927,46.363 48.004,46.474C48.361,46.985 48.448,47.639 48.237,48.226C48.026,48.814 47.543,49.262 46.942,49.429C46.941,49.43 46.94,49.43 46.939,49.43C36.184,52.42 24.816,52.42 14.061,49.43C14.06,49.43 14.059,49.43 14.058,49.429C13.457,49.262 12.974,48.814 12.763,48.226C12.552,47.639 12.639,46.985 12.996,46.474C13.073,46.363 13.152,46.251 13.233,46.136C16.433,41.555 21.669,38.826 27.257,38.826C29.372,38.826 31.628,38.826 33.743,38.826Z" style="fill:rgb(0,179,126);fill-opacity:0.5;"/>
    <path d="M26.543,29.782C21.869,34.935 14.073,35.761 8.423,31.703C7.117,30.764 5.776,29.801 4.465,28.86C2.205,27.237 0.917,24.583 1.039,21.804C1.161,19.025 2.677,16.494 5.07,15.076C9.292,12.572 14.148,9.694 18.477,7.128C25.884,2.736 35.102,2.759 42.488,7.186C46.789,9.765 51.605,12.652 55.78,15.155C58.134,16.566 59.625,19.064 59.75,21.806C59.874,24.548 58.616,27.17 56.4,28.789C55.106,29.734 53.782,30.702 52.491,31.645C46.901,35.728 39.132,34.936 34.481,29.809C34.472,29.8 34.464,29.79 34.455,29.781C33.443,28.665 32.007,28.029 30.5,28.029C28.993,28.029 27.557,28.665 26.545,29.781C26.544,29.781 26.544,29.782 26.543,29.782Z" style="fill:rgb(0,179,126);fill-opacity:0.5;"/>
    <g transform="matrix(0.503091,1.24191e-17,-5.23261e-18,0.457041,16.8643,20.8564)">
        <path d="M11.897,24.999C14.458,18.327 20.391,13.981 26.972,13.959C33.552,13.937 39.509,18.243 42.107,24.898C44.244,30.374 46.271,35.569 47.925,39.806C48.515,41.32 48.168,43.079 47.059,44.186C45.951,45.292 44.326,45.502 43.015,44.708C42.347,44.303 41.664,43.889 40.975,43.472C32.217,38.166 21.592,38.208 12.869,43.582C12.297,43.935 11.73,44.285 11.172,44.628C9.866,45.433 8.239,45.235 7.124,44.136C6.008,43.037 5.65,41.279 6.233,39.761C7.845,35.559 9.818,30.419 11.897,24.999Z" style="fill:rgb(0,179,126);"/>
    </g>
</svg>
